<svg width="24" height="25" viewBox="0 0 24 25" fill="none" xmlns="http://www.w3.org/2000/svg">
<mask id="mask0_2096_2180" style="mask-type:alpha" maskUnits="userSpaceOnUse" x="0" y="0" width="24" height="25">
<rect y="0.224121" width="24" height="24" fill="#D9D9D9"/>
</mask>
<g mask="url(#mask0_2096_2180)">
<path d="M14.5 23.2241C14.0833 23.2241 13.7291 23.0783 13.4375 22.7866C13.1458 22.495 13 22.1408 13 21.7241V14.7241C13 14.3075 13.1458 13.9533 13.4375 13.6616C13.7291 13.37 14.0833 13.2241 14.5 13.2241H21.5C21.9166 13.2241 22.2708 13.37 22.5625 13.6616C22.8541 13.9533 23 14.3075 23 14.7241V21.7241C23 22.1408 22.8541 22.495 22.5625 22.7866C22.2708 23.0783 21.9166 23.2241 21.5 23.2241H14.5ZM11 17.6491V22.2241H10.575C10.125 22.2241 9.77915 22.0741 9.53748 21.7741C9.29581 21.4741 9.14165 21.1075 9.07498 20.6741L8.84998 19.0241C8.63331 18.9408 8.42915 18.8408 8.23748 18.7241C8.04581 18.6075 7.85831 18.4825 7.67498 18.3491L6.12498 18.9991C5.70831 19.1825 5.29165 19.1991 4.87498 19.0491C4.45831 18.8991 4.13331 18.6325 3.89998 18.2491L2.72498 16.1991C2.49165 15.8158 2.42498 15.4075 2.52498 14.9741C2.62498 14.5408 2.84998 14.1825 3.19998 13.8991L4.52498 12.8991C4.50831 12.7825 4.49998 12.67 4.49998 12.5616V11.8866C4.49998 11.7783 4.50831 11.6658 4.52498 11.5491L3.19998 10.5491C2.84998 10.2658 2.62498 9.90745 2.52498 9.47412C2.42498 9.04079 2.49165 8.63245 2.72498 8.24912L3.89998 6.19912C4.13331 5.81579 4.45831 5.54912 4.87498 5.39912C5.29165 5.24912 5.70831 5.26579 6.12498 5.44912L7.67498 6.09912C7.85831 5.96579 8.04998 5.84079 8.24998 5.72412C8.44998 5.60745 8.64998 5.50745 8.84998 5.42412L9.07498 3.77412C9.14165 3.34079 9.33748 2.97412 9.66248 2.67412C9.98748 2.37412 10.375 2.22412 10.825 2.22412H13.175C13.625 2.22412 14.0125 2.37412 14.3375 2.67412C14.6625 2.97412 14.8583 3.34079 14.925 3.77412L15.15 5.42412C15.3666 5.50745 15.5708 5.60745 15.7625 5.72412C15.9541 5.84079 16.1416 5.96579 16.325 6.09912L17.875 5.44912C18.2916 5.26579 18.7083 5.24912 19.125 5.39912C19.5416 5.54912 19.8666 5.81579 20.1 6.19912L21.275 8.24912C21.5083 8.63245 21.575 9.04495 21.475 9.48662C21.375 9.92829 21.15 10.2825 20.8 10.5491L20.2 10.9991C19.9666 11.1658 19.7208 11.2325 19.4625 11.1991C19.2041 11.1658 18.9833 11.0408 18.8 10.8241C18.6166 10.6075 18.5416 10.3658 18.575 10.0991C18.6083 9.83245 18.7333 9.60745 18.95 9.42412L19.425 9.07412L18.45 7.37412L15.975 8.42412C15.6083 8.04079 15.2041 7.71995 14.7625 7.46162C14.3208 7.20329 13.8416 7.00745 13.325 6.87412L13 4.22412H11.025L10.675 6.87412C10.1583 7.00745 9.67915 7.20329 9.23748 7.46162C8.79581 7.71995 8.39165 8.03245 8.02498 8.39912L5.54998 7.37412L4.57498 9.07412L6.72498 10.6741C6.64165 10.9241 6.58331 11.1741 6.54998 11.4241C6.51665 11.6741 6.49998 11.9408 6.49998 12.2241C6.49998 12.4908 6.51665 12.7491 6.54998 12.9991C6.58331 13.2491 6.64165 13.4991 6.72498 13.7491L4.57498 15.3741L5.54998 17.0741L8.02498 16.0241C8.42498 16.4408 8.87915 16.7866 9.38748 17.0616C9.89581 17.3366 10.4333 17.5325 11 17.6491ZM12.05 8.72412C11.0833 8.72412 10.2583 9.06162 9.57498 9.73662C8.89165 10.4116 8.54998 11.2408 8.54998 12.2241C8.54998 12.5741 8.59998 12.9158 8.69998 13.2491C8.79998 13.5825 8.94998 13.8991 9.14998 14.1991C9.33331 14.4491 9.57081 14.6075 9.86248 14.6741C10.1541 14.7408 10.4166 14.6825 10.65 14.4991C10.8833 14.3325 11.0208 14.1116 11.0625 13.8366C11.1041 13.5616 11.0333 13.3241 10.85 13.1241C10.75 12.9908 10.675 12.8533 10.625 12.7116C10.575 12.57 10.55 12.4075 10.55 12.2241C10.55 11.8075 10.6958 11.4533 10.9875 11.1616C11.2791 10.87 11.6333 10.7241 12.05 10.7241C12.2166 10.7241 12.3791 10.7533 12.5375 10.8116C12.6958 10.87 12.8416 10.9491 12.975 11.0491C13.175 11.1991 13.4 11.2533 13.65 11.2116C13.9 11.17 14.1083 11.0325 14.275 10.7991C14.4416 10.5658 14.4958 10.3075 14.4375 10.0241C14.3791 9.74079 14.2333 9.50745 14 9.32412C13.7666 9.12412 13.4833 8.97412 13.15 8.87412C12.8166 8.77412 12.45 8.72412 12.05 8.72412ZM18 19.2241C17.5833 19.2241 17.175 19.2783 16.775 19.3866C16.375 19.495 16 19.6658 15.65 19.8991C15.4333 20.0325 15.2708 20.1741 15.1625 20.3241C15.0541 20.4741 15 20.6325 15 20.7991C15 20.9158 15.0416 21.0158 15.125 21.0991C15.2083 21.1825 15.3083 21.2241 15.425 21.2241H20.675C20.7583 21.2241 20.8333 21.1825 20.9 21.0991C20.9666 21.0158 21 20.9158 21 20.7991C21 20.6325 20.9458 20.4741 20.8375 20.3241C20.7291 20.1741 20.5666 20.0325 20.35 19.8991C20 19.6658 19.625 19.495 19.225 19.3866C18.825 19.2783 18.4166 19.2241 18 19.2241ZM18 18.2241C18.4166 18.2241 18.7708 18.0783 19.0625 17.7866C19.3541 17.495 19.5 17.1408 19.5 16.7241C19.5 16.3075 19.3541 15.9533 19.0625 15.6616C18.7708 15.37 18.4166 15.2241 18 15.2241C17.5833 15.2241 17.2291 15.37 16.9375 15.6616C16.6458 15.9533 16.5 16.3075 16.5 16.7241C16.5 17.1408 16.6458 17.495 16.9375 17.7866C17.2291 18.0783 17.5833 18.2241 18 18.2241Z" fill="black"/>
</g>
</svg>
