<svg width="499" height="342" viewBox="0 0 499 342" fill="none" xmlns="http://www.w3.org/2000/svg">
<path fill-rule="evenodd" clip-rule="evenodd" d="M255.7 199.126H233.972V217.545L255.7 217.526V199.126Z" fill="#FEFEFE"/>
<mask id="mask0_1_4" style="mask-type:luminance" maskUnits="userSpaceOnUse" x="0" y="0" width="499" height="342">
<path d="M498.168 341.635H0V0.370697H498.168V341.635Z" fill="white"/>
</mask>
<g mask="url(#mask0_1_4)">
<path fill-rule="evenodd" clip-rule="evenodd" d="M9.33862 170.167C9.71777 81.6716 109.09 9.94293 239.865 9.71305C278.336 9.64195 335.841 20.2518 362.737 29.1293L370.905 21.5553L450.595 45.216L468.628 128.37L431.234 167.65L485.346 249.043C442.296 279.216 340.424 332.292 240.995 332.292C98.9097 332.292 8.94051 262.935 9.33862 170.167ZM443.142 168.691L478.803 131.223L458.547 37.8362L368.459 11.0852L360.358 18.6C330.227 9.61115 276.047 0.304694 239.848 0.37105C105.758 0.605666 0.404969 75.1734 -0.000244141 170.122C-0.000244141 251.363 70.0614 341.636 240.995 341.636C376.431 341.636 498.168 251.463 498.168 251.463L443.142 168.691Z" fill="#FEFEFE"/>
</g>
<path fill-rule="evenodd" clip-rule="evenodd" d="M387.849 174.641C370.968 159.77 346.38 144.197 315.252 136.628V205.584C338.745 199.086 364.522 188.061 387.849 174.641Z" fill="#FEFEFE"/>
<path fill-rule="evenodd" clip-rule="evenodd" d="M173.317 208.284V133.55C151.736 139.792 127.551 152.009 127.551 171.347C127.551 184.59 147.99 200.574 173.317 208.284Z" fill="#FEFEFE"/>
<path fill-rule="evenodd" clip-rule="evenodd" d="M234.455 142.569H255.576V125.063L234.455 124.209V142.569Z" fill="#FEFEFE"/>
<path fill-rule="evenodd" clip-rule="evenodd" d="M189.806 113.531V228.261C170.972 228.261 110.868 206.162 110.868 171.344C110.868 128.302 172.29 116.415 189.806 113.531ZM267.519 185.335V230.427C254.794 231.946 235.391 232.32 222.273 231.351V185.335H267.519ZM222.273 155.712V110.924C237.906 110.142 255.249 110.957 267.519 112.417V155.712H222.273ZM228.24 303.613C116.754 303.613 38.2066 244.691 38.2066 169.547C38.2066 97.6125 128.413 38.1905 231.28 38.1905C299.458 38.1905 343.778 52.7296 369.996 63.2352L378.681 53.4216L426.524 67.4038L437.6 119.887L405.157 152.961C366.19 114.543 293.223 98.3305 232.709 98.3305C142.775 98.3305 98.7493 132.833 98.7493 169.04C98.7493 209.197 146.737 242.909 231.01 243.707C290.965 244.269 340.109 235.847 413.953 192.48L446 240.873C407.669 260.988 341.304 303.613 228.24 303.613ZM417.247 176.309C417.247 176.309 360.816 214.819 298.6 226.438V117.105C366.159 125.601 406.176 169.772 406.176 169.772L451.19 123.243L436.735 57.9765L375.223 39.9845L367.42 48.4947C342.46 38.7356 290.965 26.0995 233.88 26.0995C119.583 26.0995 26.2445 90.8607 26.0763 170.789C25.9128 248.627 105.136 316.014 233.012 316.014C351.147 316.014 436.42 259.73 463.128 244.646L417.247 176.309Z" fill="#FEFEFE"/>
<path fill-rule="evenodd" clip-rule="evenodd" d="M413.954 192.479C340.11 235.848 290.966 244.268 231.011 243.706C146.738 242.908 98.75 209.199 98.75 169.039C98.75 132.832 142.776 98.3293 232.71 98.3293C293.224 98.3293 366.188 114.542 405.158 152.959L437.601 119.886L426.523 67.405L378.679 53.4204L369.996 63.2364C343.776 52.7284 299.459 38.1893 231.281 38.1893C128.413 38.1893 38.2073 97.6136 38.2073 169.546C38.2073 244.69 116.752 303.612 228.241 303.612C341.304 303.612 407.667 260.987 445.999 240.874L413.954 192.479Z" fill="#6B6B6B"/>
<path fill-rule="evenodd" clip-rule="evenodd" d="M387.849 174.641C364.522 188.061 338.745 199.086 315.252 205.584V136.628C346.38 144.197 370.968 159.77 387.849 174.641ZM233.013 316.012C105.136 316.012 25.9133 248.628 26.0768 170.79C26.245 90.8588 119.584 26.0976 233.88 26.0976C290.965 26.0976 342.461 38.7361 367.418 48.4952L375.224 39.985L436.733 57.9746L451.191 123.243L406.176 169.773C406.176 169.773 366.16 125.601 298.6 117.105V226.436C360.816 214.819 417.247 176.309 417.247 176.309L463.129 244.646C436.42 259.728 351.148 316.012 233.013 316.012ZM431.236 167.652L468.627 128.369L450.593 45.2176L370.906 21.5546L362.738 29.131C335.84 20.2535 278.335 9.64125 239.864 9.71235C109.089 9.94222 9.71659 81.6732 9.33982 170.166C8.94171 262.935 98.9085 332.291 240.996 332.291C340.425 332.291 442.295 279.216 485.345 249.045L431.236 167.652Z" fill="black"/>
<path fill-rule="evenodd" clip-rule="evenodd" d="M233.971 199.126H255.699V217.526L233.971 217.545V199.126ZM222.272 231.351C235.391 232.321 254.794 231.946 267.521 230.427V185.336H222.272V231.351Z" fill="black"/>
<path fill-rule="evenodd" clip-rule="evenodd" d="M234.455 124.209L255.576 125.062V142.569H234.455V124.209ZM222.273 110.926V155.712H267.521V112.417C255.249 110.957 237.905 110.142 222.273 110.926Z" fill="black"/>
<path fill-rule="evenodd" clip-rule="evenodd" d="M173.317 133.55V208.283C147.99 200.574 127.551 184.59 127.551 171.347C127.551 152.009 151.736 139.792 173.317 133.55ZM110.867 171.342C110.867 206.162 170.973 228.261 189.805 228.261V113.532C172.288 116.416 110.867 128.303 110.867 171.342Z" fill="black"/>
</svg>
