<svg width="43" height="43" viewBox="0 0 43 43" fill="none" xmlns="http://www.w3.org/2000/svg">
<mask id="mask0_129_1818" style="mask-type:alpha" maskUnits="userSpaceOnUse" x="0" y="0" width="43" height="43">
<rect x="0.0615234" y="0.458984" width="42" height="42" fill="#D9D9D9"/>
</mask>
<g mask="url(#mask0_129_1818)">
<path d="M20.974 31.959C21.5865 31.959 22.1042 31.7475 22.5271 31.3246C22.9501 30.9017 23.1615 30.384 23.1615 29.7715C23.1615 29.159 22.9501 28.6413 22.5271 28.2184C22.1042 27.7954 21.5865 27.584 20.974 27.584C20.3615 27.584 19.8438 27.7954 19.4209 28.2184C18.998 28.6413 18.7865 29.159 18.7865 29.7715C18.7865 30.384 18.998 30.9017 19.4209 31.3246C19.8438 31.7475 20.3615 31.959 20.974 31.959ZM19.399 25.2215H22.6365C22.6365 24.259 22.7459 23.5007 22.9646 22.9465C23.1834 22.3923 23.8032 21.634 24.824 20.6715C25.5824 19.9132 26.1803 19.1913 26.6178 18.5059C27.0553 17.8204 27.274 16.9965 27.274 16.034C27.274 14.4007 26.6761 13.1465 25.4803 12.2715C24.2844 11.3965 22.8699 10.959 21.2365 10.959C19.574 10.959 18.2251 11.3965 17.1896 12.2715C16.1542 13.1465 15.4324 14.1965 15.024 15.4215L17.9115 16.559C18.0574 16.034 18.3855 15.4652 18.8959 14.8527C19.4063 14.2402 20.1865 13.934 21.2365 13.934C22.1699 13.934 22.8699 14.1892 23.3365 14.6996C23.8032 15.21 24.0365 15.7715 24.0365 16.384C24.0365 16.9673 23.8615 17.5142 23.5115 18.0246C23.1615 18.535 22.724 19.009 22.199 19.4465C20.9157 20.584 20.1282 21.4444 19.8365 22.0277C19.5449 22.6111 19.399 23.6757 19.399 25.2215ZM21.0615 38.959C18.6407 38.959 16.3657 38.4996 14.2365 37.5809C12.1074 36.6621 10.2553 35.4152 8.68027 33.8402C7.10527 32.2652 5.8584 30.4132 4.93965 28.284C4.0209 26.1548 3.56152 23.8798 3.56152 21.459C3.56152 19.0382 4.0209 16.7632 4.93965 14.634C5.8584 12.5048 7.10527 10.6527 8.68027 9.07773C10.2553 7.50273 12.1074 6.25586 14.2365 5.33711C16.3657 4.41836 18.6407 3.95898 21.0615 3.95898C23.4824 3.95898 25.7574 4.41836 27.8865 5.33711C30.0157 6.25586 31.8678 7.50273 33.4428 9.07773C35.0178 10.6527 36.2646 12.5048 37.1834 14.634C38.1021 16.7632 38.5615 19.0382 38.5615 21.459C38.5615 23.8798 38.1021 26.1548 37.1834 28.284C36.2646 30.4132 35.0178 32.2652 33.4428 33.8402C31.8678 35.4152 30.0157 36.6621 27.8865 37.5809C25.7574 38.4996 23.4824 38.959 21.0615 38.959Z" fill="#1683FF"/>
</g>
</svg>
