<svg width="24" height="25" viewBox="0 0 24 25" fill="none" xmlns="http://www.w3.org/2000/svg">
<mask id="mask0_129_1782" style="mask-type:alpha" maskUnits="userSpaceOnUse" x="0" y="0" width="24" height="25">
<rect y="0.139648" width="24" height="24" fill="#D9D9D9"/>
</mask>
<g mask="url(#mask0_129_1782)">
<path d="M12.001 17.3517C12.3443 17.3517 12.6322 17.2355 12.8645 17.0032C13.0968 16.7708 13.213 16.483 13.213 16.1397V12.3517C13.213 12.0083 13.0968 11.7205 12.8645 11.4882C12.6322 11.2558 12.3443 11.1397 12.001 11.1397C11.6577 11.1397 11.3698 11.2558 11.1375 11.4882C10.9052 11.7205 10.789 12.0083 10.789 12.3517V16.1397C10.789 16.483 10.9052 16.7708 11.1375 17.0032C11.3698 17.2355 11.6577 17.3517 12.001 17.3517ZM12.001 9.42218C12.3643 9.42218 12.6689 9.29926 12.9148 9.05343C13.1606 8.80759 13.2835 8.50301 13.2835 8.13968C13.2835 7.77634 13.1606 7.47176 12.9148 7.22593C12.6689 6.9801 12.3643 6.85718 12.001 6.85718C11.6377 6.85718 11.3331 6.9801 11.0873 7.22593C10.8414 7.47176 10.7185 7.77634 10.7185 8.13968C10.7185 8.50301 10.8414 8.80759 11.0873 9.05343C11.3331 9.29926 11.6377 9.42218 12.001 9.42218ZM12.001 22.6202C10.5423 22.6202 9.17642 22.3455 7.90326 21.7962C6.63026 21.2468 5.52292 20.5013 4.58126 19.5594C3.63942 18.6178 2.89384 17.5104 2.34451 16.2374C1.79517 14.9643 1.52051 13.5983 1.52051 12.1397C1.52051 10.681 1.79517 9.3151 2.34451 8.04193C2.89384 6.76893 3.63942 5.6616 4.58126 4.71993C5.52292 3.7781 6.63026 3.03251 7.90326 2.48318C9.17642 1.93385 10.5423 1.65918 12.001 1.65918C13.4597 1.65918 14.8256 1.93385 16.0988 2.48318C17.3718 3.03251 18.4791 3.7781 19.4208 4.71993C20.3626 5.6616 21.1082 6.76893 21.6575 8.04193C22.2068 9.3151 22.4815 10.681 22.4815 12.1397C22.4815 13.5983 22.2068 14.9643 21.6575 16.2374C21.1082 17.5104 20.3626 18.6178 19.4208 19.5594C18.4791 20.5013 17.3718 21.2468 16.0988 21.7962C14.8256 22.3455 13.4597 22.6202 12.001 22.6202Z" fill="#1683FF"/>
</g>
</svg>
