<svg width="18" height="18" viewBox="0 0 18 18" fill="none" xmlns="http://www.w3.org/2000/svg">
<path d="M8.25488 13.166H9.92155V8.16602H8.25488V13.166ZM9.08822 6.49935C9.32433 6.49935 9.52224 6.41949 9.68197 6.25977C9.84169 6.10004 9.92155 5.90213 9.92155 5.66602C9.92155 5.4299 9.84169 5.23199 9.68197 5.07227C9.52224 4.91254 9.32433 4.83268 9.08822 4.83268C8.85211 4.83268 8.65419 4.91254 8.49447 5.07227C8.33474 5.23199 8.25488 5.4299 8.25488 5.66602C8.25488 5.90213 8.33474 6.10004 8.49447 6.25977C8.65419 6.41949 8.85211 6.49935 9.08822 6.49935ZM9.08822 17.3327C7.93544 17.3327 6.8521 17.1139 5.83822 16.6764C4.82433 16.2389 3.94238 15.6452 3.19238 14.8952C2.44238 14.1452 1.84863 13.2632 1.41113 12.2493C0.973633 11.2355 0.754883 10.1521 0.754883 8.99935C0.754883 7.84657 0.973633 6.76324 1.41113 5.74935C1.84863 4.73546 2.44238 3.85352 3.19238 3.10352C3.94238 2.35352 4.82433 1.75977 5.83822 1.32227C6.8521 0.884766 7.93544 0.666016 9.08822 0.666016C10.241 0.666016 11.3243 0.884766 12.3382 1.32227C13.3521 1.75977 14.234 2.35352 14.984 3.10352C15.734 3.85352 16.3278 4.73546 16.7653 5.74935C17.2028 6.76324 17.4215 7.84657 17.4215 8.99935C17.4215 10.1521 17.2028 11.2355 16.7653 12.2493C16.3278 13.2632 15.734 14.1452 14.984 14.8952C14.234 15.6452 13.3521 16.2389 12.3382 16.6764C11.3243 17.1139 10.241 17.3327 9.08822 17.3327ZM9.08822 15.666C10.9493 15.666 12.5257 15.0202 13.8174 13.7285C15.109 12.4368 15.7549 10.8605 15.7549 8.99935C15.7549 7.13824 15.109 5.56185 13.8174 4.27018C12.5257 2.97852 10.9493 2.33268 9.08822 2.33268C7.2271 2.33268 5.65072 2.97852 4.35905 4.27018C3.06738 5.56185 2.42155 7.13824 2.42155 8.99935C2.42155 10.8605 3.06738 12.4368 4.35905 13.7285C5.65072 15.0202 7.2271 15.666 9.08822 15.666Z" fill="black"/>
</svg>
