<svg width="31" height="31" viewBox="0 0 31 31" fill="none" xmlns="http://www.w3.org/2000/svg">
<path d="M11.3489 13.2761L9.46951 11.472C9.12348 11.1363 8.71343 10.9684 8.23935 10.9684C7.76553 10.9684 7.35406 11.1363 7.00495 11.472C6.65557 11.808 6.47599 12.2059 6.4662 12.6656C6.45641 13.1254 6.62774 13.5263 6.98021 13.8683L10.0894 16.8851C10.4398 17.2271 10.8558 17.3981 11.3373 17.3981C11.8189 17.3981 12.2359 17.2271 12.5884 16.8851L18.7241 10.9601C19.0701 10.6244 19.2431 10.2219 19.2431 9.75263C19.2431 9.28313 19.0701 8.88051 18.7241 8.54476C18.3737 8.20276 17.9577 8.03176 17.4761 8.03176C16.9946 8.03176 16.5776 8.20276 16.2251 8.54476L11.3489 13.2761ZM12.8519 24.9169C9.28606 24.9169 6.26561 23.717 3.79062 21.3173C1.31562 18.9175 0.078125 15.9888 0.078125 12.531C0.078125 9.07351 1.31562 6.14488 3.79062 3.74513C6.26561 1.34538 9.28606 0.145508 12.8519 0.145508C16.4155 0.145508 19.4339 1.34538 21.9071 3.74513C24.38 6.14488 25.6165 9.07351 25.6165 12.531C25.6165 13.9505 25.3926 15.2876 24.9448 16.5424C24.497 17.7971 23.8609 18.9489 23.0364 19.9976L30.4038 27.1463C30.7501 27.4823 30.9232 27.8841 30.9232 28.3519C30.9232 28.8199 30.7501 29.224 30.4038 29.5643C30.0578 29.9045 29.6428 30.0746 29.1589 30.0746C28.6751 30.0746 28.2572 29.9038 27.9052 29.562L20.5378 22.4134C19.4567 23.2074 18.2706 23.8231 16.9795 24.2606C15.6884 24.6981 14.3126 24.9169 12.8519 24.9169Z" fill="#1683FF"/>
</svg>
