<svg width="28" height="27" viewBox="0 0 28 27" fill="none" xmlns="http://www.w3.org/2000/svg">
<mask id="mask0_129_1842" style="mask-type:alpha" maskUnits="userSpaceOnUse" x="0" y="0" width="28" height="27">
<rect x="0.796875" y="0.624023" width="26.2353" height="26.2353" fill="#D9D9D9"/>
</mask>
<g mask="url(#mask0_129_1842)">
<path d="M12.697 14.9585V18.1144C12.697 18.4591 12.8136 18.748 13.0468 18.9812C13.28 19.2144 13.569 19.331 13.9137 19.331C14.2584 19.331 14.5473 19.2144 14.7805 18.9812C15.0137 18.748 15.1303 18.4591 15.1303 18.1144V14.9585H18.2862C18.6309 14.9585 18.9199 14.8419 19.1531 14.6087C19.3863 14.3755 19.5029 14.0865 19.5029 13.7418C19.5029 13.3971 19.3863 13.1081 19.1531 12.8749C18.9199 12.6417 18.6309 12.5251 18.2862 12.5251H15.1303V9.36925C15.1303 9.02454 15.0137 8.73559 14.7805 8.50239C14.5473 8.26919 14.2584 8.15258 13.9137 8.15258C13.569 8.15258 13.28 8.26919 13.0468 8.50239C12.8136 8.73559 12.697 9.02454 12.697 9.36925V12.5251H9.54112C9.19642 12.5251 8.90747 12.6417 8.67426 12.8749C8.44106 13.1081 8.32446 13.3971 8.32446 13.7418C8.32446 14.0865 8.44106 14.3755 8.67426 14.6087C8.90747 14.8419 9.19642 14.9585 9.54112 14.9585H12.697ZM13.9137 25.1985C12.3192 25.1985 10.826 24.8982 9.43427 24.2977C8.0427 23.6972 6.83223 22.8822 5.80286 21.8526C4.7733 20.8233 3.95828 19.6128 3.35778 18.2212C2.75728 16.8295 2.45703 15.3363 2.45703 13.7418C2.45703 12.1473 2.75728 10.6541 3.35778 9.26239C3.95828 7.87083 4.7733 6.66036 5.80286 5.63098C6.83223 4.60143 8.0427 3.7864 9.43427 3.1859C10.826 2.5854 12.3192 2.28516 13.9137 2.28516C15.5082 2.28516 17.0013 2.5854 18.3931 3.1859C19.7847 3.7864 20.9951 4.60143 22.0245 5.63098C23.0541 6.66036 23.8691 7.87083 24.4696 9.26239C25.0701 10.6541 25.3703 12.1473 25.3703 13.7418C25.3703 15.3363 25.0701 16.8295 24.4696 18.2212C23.8691 19.6128 23.0541 20.8233 22.0245 21.8526C20.9951 22.8822 19.7847 23.6972 18.3931 24.2977C17.0013 24.8982 15.5082 25.1985 13.9137 25.1985ZM13.9137 22.3016C16.3139 22.3016 18.3405 21.475 19.9937 19.8218C21.6469 18.1687 22.4735 16.142 22.4735 13.7418C22.4735 11.3416 21.6469 9.31496 19.9937 7.66176C18.3405 6.00857 16.3139 5.18198 13.9137 5.18198C11.5135 5.18198 9.48683 6.00857 7.83364 7.66176C6.18045 9.31496 5.35385 11.3416 5.35385 13.7418C5.35385 16.142 6.18045 18.1687 7.83364 19.8218C9.48683 21.475 11.5135 22.3016 13.9137 22.3016Z" fill="#1C1B1F"/>
</g>
</svg>
