<svg width="16" height="21" viewBox="0 0 16 21" fill="none" xmlns="http://www.w3.org/2000/svg">
<path d="M8 20.4741C5.68333 19.8908 3.77083 18.5616 2.2625 16.4866C0.754167 14.4116 0 12.1075 0 9.57412V3.47412L8 0.474121L16 3.47412V9.57412C16 12.1075 15.2458 14.4116 13.7375 16.4866C12.2292 18.5616 10.3167 19.8908 8 20.4741ZM8 18.3741C9.73333 17.8241 11.1667 16.7241 12.3 15.0741C13.4333 13.4241 14 11.5908 14 9.57412V4.84912L8 2.59912L2 4.84912V9.57412C2 11.5908 2.56667 13.4241 3.7 15.0741C4.83333 16.7241 6.26667 17.8241 8 18.3741ZM6 14.4741H10C10.2833 14.4741 10.5208 14.3783 10.7125 14.1866C10.9042 13.995 11 13.7575 11 13.4741V10.4741C11 10.1908 10.9042 9.95329 10.7125 9.76162C10.5208 9.56995 10.2833 9.47412 10 9.47412V8.47412C10 7.92412 9.80417 7.45329 9.4125 7.06162C9.02083 6.66995 8.55 6.47412 8 6.47412C7.45 6.47412 6.97917 6.66995 6.5875 7.06162C6.19583 7.45329 6 7.92412 6 8.47412V9.47412C5.71667 9.47412 5.47917 9.56995 5.2875 9.76162C5.09583 9.95329 5 10.1908 5 10.4741V13.4741C5 13.7575 5.09583 13.995 5.2875 14.1866C5.47917 14.3783 5.71667 14.4741 6 14.4741ZM7 9.47412V8.47412C7 8.19079 7.09583 7.95329 7.2875 7.76162C7.47917 7.56995 7.71667 7.47412 8 7.47412C8.28333 7.47412 8.52083 7.56995 8.7125 7.76162C8.90417 7.95329 9 8.19079 9 8.47412V9.47412H7Z" fill="black"/>
</svg>
