<svg width="22" height="19" viewBox="0 0 22 19" fill="none" xmlns="http://www.w3.org/2000/svg">
<path d="M1.72503 18.7441C1.5417 18.7441 1.37503 18.6983 1.22503 18.6066C1.07503 18.515 0.958367 18.3941 0.875034 18.2441C0.7917 18.0941 0.745867 17.9316 0.737534 17.7566C0.7292 17.5816 0.775034 17.4108 0.875034 17.2441L10.125 1.24414C10.225 1.07747 10.3542 0.952474 10.5125 0.869141C10.6709 0.785807 10.8334 0.744141 11 0.744141C11.1667 0.744141 11.3292 0.785807 11.4875 0.869141C11.6459 0.952474 11.775 1.07747 11.875 1.24414L21.125 17.2441C21.225 17.4108 21.2709 17.5816 21.2625 17.7566C21.2542 17.9316 21.2084 18.0941 21.125 18.2441C21.0417 18.3941 20.925 18.515 20.775 18.6066C20.625 18.6983 20.4584 18.7441 20.275 18.7441H1.72503ZM3.45003 16.7441H18.55L11 3.74414L3.45003 16.7441ZM11 15.7441C11.2834 15.7441 11.5209 15.6483 11.7125 15.4566C11.9042 15.265 12 15.0275 12 14.7441C12 14.4608 11.9042 14.2233 11.7125 14.0316C11.5209 13.84 11.2834 13.7441 11 13.7441C10.7167 13.7441 10.4792 13.84 10.2875 14.0316C10.0959 14.2233 10 14.4608 10 14.7441C10 15.0275 10.0959 15.265 10.2875 15.4566C10.4792 15.6483 10.7167 15.7441 11 15.7441ZM11 12.7441C11.2834 12.7441 11.5209 12.6483 11.7125 12.4566C11.9042 12.265 12 12.0275 12 11.7441V8.74414C12 8.46081 11.9042 8.22331 11.7125 8.03164C11.5209 7.83997 11.2834 7.74414 11 7.74414C10.7167 7.74414 10.4792 7.83997 10.2875 8.03164C10.0959 8.22331 10 8.46081 10 8.74414V11.7441C10 12.0275 10.0959 12.265 10.2875 12.4566C10.4792 12.6483 10.7167 12.7441 11 12.7441Z" fill="black"/>
</svg>
