<svg width="18" height="19" viewBox="0 0 18 19" fill="none" xmlns="http://www.w3.org/2000/svg">
<mask id="mask0_8_1791" style="mask-type:alpha" maskUnits="userSpaceOnUse" x="0" y="0" width="18" height="19">
<rect y="0.222656" width="18" height="18" fill="#D9D9D9"/>
</mask>
<g mask="url(#mask0_8_1791)">
<path d="M13.5 15.9727H5.25V6.22266L10.5 0.972656L11.4375 1.91016C11.525 1.99766 11.5969 2.11641 11.6531 2.26641C11.7094 2.41641 11.7375 2.56016 11.7375 2.69766V2.96016L10.9125 6.22266H15.75C16.15 6.22266 16.5 6.37266 16.8 6.67266C17.1 6.97266 17.25 7.32266 17.25 7.72266V9.22266C17.25 9.31016 17.2375 9.40391 17.2125 9.50391C17.1875 9.60391 17.1625 9.69766 17.1375 9.78516L14.8875 15.0727C14.775 15.3227 14.5875 15.5352 14.325 15.7102C14.0625 15.8852 13.7875 15.9727 13.5 15.9727ZM6.75 14.4727H13.5L15.75 9.22266V7.72266H9L10.0125 3.59766L6.75 6.86016V14.4727ZM5.25 6.22266V7.72266H3V14.4727H5.25V15.9727H1.5V6.22266H5.25Z" fill="#727272"/>
</g>
</svg>
