<svg width="18" height="19" viewBox="0 0 18 19" fill="none" xmlns="http://www.w3.org/2000/svg">
<mask id="mask0_8_1788" style="mask-type:alpha" maskUnits="userSpaceOnUse" x="0" y="0" width="18" height="19">
<rect y="0.222656" width="18" height="18" fill="#D9D9D9"/>
</mask>
<g mask="url(#mask0_8_1788)">
<path d="M4.5 2.47266H12.75V12.2227L7.5 17.4727L6.5625 16.5352C6.475 16.4477 6.40313 16.3289 6.34688 16.1789C6.29063 16.0289 6.2625 15.8852 6.2625 15.7477V15.4852L7.0875 12.2227H2.25C1.85 12.2227 1.5 12.0727 1.2 11.7727C0.9 11.4727 0.75 11.1227 0.75 10.7227V9.22266C0.75 9.13516 0.7625 9.04141 0.7875 8.94141C0.8125 8.84141 0.8375 8.74766 0.8625 8.66016L3.1125 3.37266C3.225 3.12266 3.4125 2.91016 3.675 2.73516C3.9375 2.56016 4.2125 2.47266 4.5 2.47266ZM11.25 3.97266H4.5L2.25 9.22266V10.7227H9L7.9875 14.8477L11.25 11.5852V3.97266ZM12.75 12.2227V10.7227H15V3.97266H12.75V2.47266H16.5V12.2227H12.75Z" fill="#727272"/>
</g>
</svg>
