<svg width="32" height="33" viewBox="0 0 32 33" fill="none" xmlns="http://www.w3.org/2000/svg">
<rect y="0.224121" width="32" height="32" rx="6" fill="#F2F2F2"/>
<mask id="mask0_2096_2187" style="mask-type:alpha" maskUnits="userSpaceOnUse" x="4" y="4" width="24" height="25">
<rect x="4" y="4.22412" width="24" height="24" fill="#D9D9D9"/>
</mask>
<g mask="url(#mask0_2096_2187)">
<path d="M6.72479 25.2241C6.54146 25.2241 6.37479 25.1783 6.22479 25.0866C6.07479 24.995 5.95812 24.8741 5.87479 24.7241C5.79146 24.5741 5.74562 24.4116 5.73729 24.2366C5.72896 24.0616 5.77479 23.8908 5.87479 23.7241L15.1248 7.72412C15.2248 7.55745 15.354 7.43245 15.5123 7.34912C15.6706 7.26579 15.8331 7.22412 15.9998 7.22412C16.1665 7.22412 16.329 7.26579 16.4873 7.34912C16.6456 7.43245 16.7748 7.55745 16.8748 7.72412L26.1248 23.7241C26.2248 23.8908 26.2706 24.0616 26.2623 24.2366C26.254 24.4116 26.2081 24.5741 26.1248 24.7241C26.0415 24.8741 25.9248 24.995 25.7748 25.0866C25.6248 25.1783 25.4581 25.2241 25.2748 25.2241H6.72479ZM8.44979 23.2241H23.5498L15.9998 10.2241L8.44979 23.2241ZM15.9998 22.2241C16.2831 22.2241 16.5206 22.1283 16.7123 21.9366C16.904 21.745 16.9998 21.5075 16.9998 21.2241C16.9998 20.9408 16.904 20.7033 16.7123 20.5116C16.5206 20.32 16.2831 20.2241 15.9998 20.2241C15.7165 20.2241 15.479 20.32 15.2873 20.5116C15.0956 20.7033 14.9998 20.9408 14.9998 21.2241C14.9998 21.5075 15.0956 21.745 15.2873 21.9366C15.479 22.1283 15.7165 22.2241 15.9998 22.2241ZM15.9998 19.2241C16.2831 19.2241 16.5206 19.1283 16.7123 18.9366C16.904 18.745 16.9998 18.5075 16.9998 18.2241V15.2241C16.9998 14.9408 16.904 14.7033 16.7123 14.5116C16.5206 14.32 16.2831 14.2241 15.9998 14.2241C15.7165 14.2241 15.479 14.32 15.2873 14.5116C15.0956 14.7033 14.9998 14.9408 14.9998 15.2241V18.2241C14.9998 18.5075 15.0956 18.745 15.2873 18.9366C15.479 19.1283 15.7165 19.2241 15.9998 19.2241Z" fill="black"/>
</g>
</svg>
